<svg width="22" height="20" viewBox="0 0 22 20" fill="none" xmlns="http://www.w3.org/2000/svg">
<path d="M12.0012 1.69058V1.71058C12.0012 2.38058 12.4512 2.94058 13.0812 3.14058C15.9312 4.03058 18.0012 6.68058 18.0012 9.82058C18.0012 10.3406 17.9412 10.8306 17.8312 11.3106C17.6912 11.9506 17.9512 12.6106 18.5212 12.9506L18.5312 12.9606C19.3912 13.4606 20.5112 13.0106 20.7412 12.0506C20.9112 11.3306 21.0012 10.5806 21.0012 9.82058C21.0012 5.32058 18.0212 1.50058 13.9212 0.250583C12.9712 -0.0394167 12.0012 0.690583 12.0012 1.69058ZM9.9412 16.7406C6.9512 16.3106 4.5212 13.8806 4.0812 10.9006C3.5412 7.30058 5.7412 4.13058 8.9112 3.14058C9.5512 2.95058 10.0012 2.38058 10.0012 1.71058V1.69058C10.0012 0.690583 9.03119 -0.0394167 8.0712 0.250583C3.56119 1.63058 0.411195 6.11058 1.0912 11.2106C1.6812 15.5906 5.2212 19.1306 9.6012 19.7206C12.7412 20.1406 15.6412 19.1106 17.7312 17.1906C18.4712 16.5106 18.3412 15.3006 17.4712 14.8006C16.8912 14.4606 16.1712 14.5706 15.6712 15.0206C14.2012 16.3606 12.1612 17.0706 9.9412 16.7406Z" fill="#3B82F6"/>
</svg>
