<svg width="14" height="18" viewBox="0 0 14 18" fill="none" xmlns="http://www.w3.org/2000/svg">
<path d="M7.97501 0.666672H2.00001C1.08334 0.666672 0.333344 1.41667 0.333344 2.33334V15.6667C0.333344 16.5833 1.08334 17.3333 2.00001 17.3333H12C12.9167 17.3333 13.6667 16.5833 13.6667 15.6667V6.35834C13.6667 5.91667 13.4917 5.49167 13.175 5.18334L9.15001 1.15834C8.84168 0.841672 8.41668 0.666672 7.97501 0.666672ZM10.3333 11.5C10.3333 13.45 8.65834 15.0083 6.67501 14.8167C4.94168 14.65 3.66668 13.1 3.66668 11.3583V7.03334C3.66668 5.94167 4.45001 4.95001 5.53334 4.84167C6.78334 4.71667 7.83334 5.69167 7.83334 6.91667V10.6667C7.83334 11.125 7.45834 11.5 7.00001 11.5C6.54168 11.5 6.16668 11.125 6.16668 10.6667V6.91667C6.16668 6.68334 5.98334 6.50001 5.75001 6.50001C5.51668 6.50001 5.33334 6.68334 5.33334 6.91667V11.4083C5.33334 12.2417 5.90001 13.0083 6.71668 13.1417C7.76668 13.3167 8.66668 12.5083 8.66668 11.5V9.00001C8.66668 8.54167 9.04168 8.16667 9.50001 8.16667C9.95834 8.16667 10.3333 8.54167 10.3333 9.00001V11.5ZM8.66668 4.83334V2.33334L12 5.66667H9.50001C9.04168 5.66667 8.66668 5.29167 8.66668 4.83334Z" fill="#A855F7"/>
</svg>
