<svg width="14" height="15" viewBox="0 0 14 15" fill="none" xmlns="http://www.w3.org/2000/svg">
<path d="M13.3 1.20997C12.91 0.819971 12.28 0.819971 11.89 1.20997L6.99997 6.08997L2.10997 1.19997C1.71997 0.809971 1.08997 0.809971 0.699971 1.19997C0.309971 1.58997 0.309971 2.21997 0.699971 2.60997L5.58997 7.49997L0.699971 12.39C0.309971 12.78 0.309971 13.41 0.699971 13.8C1.08997 14.19 1.71997 14.19 2.10997 13.8L6.99997 8.90997L11.89 13.8C12.28 14.19 12.91 14.19 13.3 13.8C13.69 13.41 13.69 12.78 13.3 12.39L8.40997 7.49997L13.3 2.60997C13.68 2.22997 13.68 1.58997 13.3 1.20997Z" fill="#B8BFCC"/>
</svg>
