<svg width="22" height="20" viewBox="0 0 22 20" fill="none" xmlns="http://www.w3.org/2000/svg">
<path d="M20.4081 9.4125L11.5781 0.5825C11.2081 0.2125 10.6981 0.00250053 10.1681 0.00250053H2.99811C1.89811 0.00250053 0.998108 0.902501 0.998108 2.0025V9.1725C0.998108 9.7025 1.20811 10.2125 1.58811 10.5825L10.4181 19.4125C11.1981 20.1925 12.4681 20.1925 13.2481 19.4125L20.4181 12.2425C21.1981 11.4625 21.1981 10.2025 20.4081 9.4125ZM5.49811 6.0025C4.66811 6.0025 3.99811 5.3325 3.99811 4.5025C3.99811 3.6725 4.66811 3.0025 5.49811 3.0025C6.32811 3.0025 6.99811 3.6725 6.99811 4.5025C6.99811 5.3325 6.32811 6.0025 5.49811 6.0025Z" fill="#3B82F6"/>
</svg>
