<svg width="22" height="20" viewBox="0 0 22 20" fill="none" xmlns="http://www.w3.org/2000/svg">
<path d="M16.9988 12.9992V16.9992C16.9988 17.5492 16.5488 17.9992 15.9988 17.9992H3.99878C3.44878 17.9992 2.99878 17.5492 2.99878 16.9992V4.99924C2.99878 4.44924 3.44878 3.99924 3.99878 3.99924H7.01878C7.56878 3.99924 8.01878 3.54924 8.01878 2.99924C8.01878 2.44924 7.56878 1.99924 7.01878 1.99924H2.99878C1.89878 1.99924 0.998779 2.89924 0.998779 3.99924V17.9992C0.998779 19.0992 1.89878 19.9992 2.99878 19.9992H16.9988C18.0988 19.9992 18.9988 19.0992 18.9988 17.9992V12.9992C18.9988 12.4492 18.5488 11.9992 17.9988 11.9992C17.4488 11.9992 16.9988 12.4492 16.9988 12.9992ZM14.4988 15.9992H5.51878C5.09878 15.9992 4.86878 15.5192 5.12878 15.1892L6.86878 12.9592C7.06878 12.7092 7.44878 12.6992 7.64878 12.9492L9.20878 14.8292L11.5588 11.8092C11.7588 11.5492 12.1588 11.5492 12.3488 11.8192L14.8988 15.2092C15.1488 15.5292 14.9088 15.9992 14.4988 15.9992ZM18.2988 6.88924C18.7788 6.11924 19.0488 5.21924 18.9888 4.22924C18.8588 2.07924 17.1488 0.259237 15.0188 0.0292367C12.2988 -0.270763 9.99878 1.83924 9.99878 4.49924C9.99878 6.98924 12.0088 8.99924 14.4888 8.99924C15.3688 8.99924 16.1888 8.73924 16.8788 8.29924L19.2888 10.7092C19.6788 11.0992 20.3188 11.0992 20.7088 10.7092C21.0988 10.3192 21.0988 9.67924 20.7088 9.28924L18.2988 6.88924ZM14.4988 6.99924C13.1188 6.99924 11.9988 5.87924 11.9988 4.49924C11.9988 3.11924 13.1188 1.99924 14.4988 1.99924C15.8788 1.99924 16.9988 3.11924 16.9988 4.49924C16.9988 5.87924 15.8788 6.99924 14.4988 6.99924Z" fill="#3B82F6"/>
</svg>
