<svg width="20" height="22" viewBox="0 0 20 22" fill="none" xmlns="http://www.w3.org/2000/svg">
<path d="M14.5 10C15.2 10 15.87 10.1 16.5 10.29V9C16.5 7.9 15.6 7 14.5 7H13.5V5C13.5 2.24 11.26 0 8.5 0C5.74 0 3.5 2.24 3.5 5V7H2.5C1.4 7 0.5 7.9 0.5 9V19C0.5 20.1 1.4 21 2.5 21H8.76C7.97 19.87 7.5 18.49 7.5 17C7.5 13.13 10.63 10 14.5 10ZM5.5 5C5.5 3.34 6.84 2 8.5 2C10.16 2 11.5 3.34 11.5 5V7H5.5V5Z" fill="#3B82F6"/>
<path d="M14.5 12C11.74 12 9.5 14.24 9.5 17C9.5 19.76 11.74 22 14.5 22C17.26 22 19.5 19.76 19.5 17C19.5 14.24 17.26 12 14.5 12ZM16.5 19C16.3 19.2 15.99 19.2 15.79 19L14.14 17.35C14.05 17.26 13.99 17.13 13.99 17V14.5C13.99 14.22 14.21 14 14.49 14C14.77 14 14.99 14.22 14.99 14.5V16.79L16.49 18.29C16.7 18.49 16.7 18.8 16.5 19Z" fill="#3B82F6"/>
</svg>
